<?xml version="1.0" standalone="no"?>
<!DOCTYPE svg PUBLIC "-//W3C//DTD SVG 20010904//EN"
 "http://www.w3.org/TR/2001/REC-SVG-20010904/DTD/svg10.dtd">
<svg version="1.0" xmlns="http://www.w3.org/2000/svg"
 width="100" height="100" viewBox="0 0 935.000000 661.000000"
 preserveAspectRatio="xMidYMid meet">

<g transform="translate(0.000000,661.000000) scale(0.100000,-0.100000)"
fill="#000000" stroke="none">
<path d="M1200 4299 c-96 -43 -159 -132 -168 -235 -9 -115 48 -217 152 -272
73 -38 179 -38 252 0 104 55 161 157 152 272 -12 147 -130 256 -278 256 -44 0
-80 -7 -110 -21z"/>
<path d="M2113 4280 c-190 -67 -355 -214 -447 -397 -14 -28 -36 -87 -48 -130
-30 -107 -30 -302 0 -416 72 -267 306 -490 579 -551 91 -20 241 -21 341 -1 91
19 214 75 296 136 32 24 145 142 252 263 l193 218 -192 162 c-105 88 -344 290
-532 448 -254 215 -346 288 -365 287 -14 0 -48 -9 -77 -19z m413 -384 c151
-69 231 -202 222 -371 -4 -68 -10 -95 -36 -148 -41 -82 -120 -157 -200 -188
-80 -31 -205 -31 -282 -1 -75 30 -158 106 -201 184 -33 61 -34 67 -34 173 0
101 2 115 28 165 33 64 95 132 152 165 101 60 246 69 351 21z"/>
<path d="M6500 2990 c0 -473 0 -470 68 -491 21 -6 49 -9 62 -7 l25 3 5 150 5
150 73 -95 c41 -52 93 -121 118 -152 l44 -58 101 0 c77 0 98 3 93 13 -4 6 -74
100 -155 208 l-147 196 159 139 160 139 -116 3 -115 3 -108 -96 -107 -96 -5
173 c-5 184 -11 206 -57 227 -13 6 -42 11 -63 11 l-40 0 0 -420z"/>
<path d="M4025 3178 c-67 -25 -165 -111 -165 -146 0 -15 81 -62 107 -62 11 0
35 11 54 25 73 53 129 56 175 10 39 -39 24 -51 -76 -58 -100 -6 -156 -27 -212
-76 -100 -87 -85 -250 30 -326 21 -13 67 -32 103 -41 61 -15 71 -15 130 0 79
21 131 54 166 108 l28 42 0 192 0 192 -30 43 c-17 24 -53 57 -80 74 -41 26
-60 30 -124 32 -42 1 -89 -3 -106 -9z m185 -433 c0 -48 -3 -57 -27 -72 -17
-11 -46 -18 -78 -18 -66 0 -105 24 -105 65 0 42 38 64 124 71 39 3 74 6 79 7
4 1 7 -23 7 -53z"/>
<path d="M4510 2736 l0 -456 44 0 c33 0 52 7 75 26 29 24 30 30 33 107 l3 81
72 13 c133 22 240 105 283 221 29 76 24 194 -11 267 -30 63 -100 134 -164 165
-45 22 -65 25 -192 28 l-143 3 0 -455z m285 269 c67 -39 104 -125 84 -198 -22
-86 -106 -152 -182 -145 l-32 3 -3 175 c-1 96 0 181 3 188 8 20 79 8 130 -23z"/>
<path d="M5190 2736 l0 -456 44 0 c33 0 52 7 75 26 28 24 30 30 33 106 l3 81
80 16 c128 26 212 88 266 196 20 42 24 65 24 140 0 82 -3 97 -33 157 -36 73
-87 124 -161 160 -40 20 -65 23 -188 26 l-143 3 0 -455z m233 293 c43 -12 101
-59 123 -100 21 -41 18 -122 -6 -169 -27 -53 -87 -92 -150 -98 l-50 -5 0 185
c0 102 3 188 7 191 9 10 32 9 76 -4z"/>
<path d="M5995 3178 c-84 -29 -135 -102 -135 -190 0 -108 61 -163 228 -208 45
-12 93 -30 105 -40 19 -15 20 -21 9 -44 -25 -55 -130 -61 -202 -11 -23 16 -54
28 -69 28 -33 0 -101 -39 -101 -58 0 -27 90 -112 141 -134 62 -27 162 -32 233
-11 73 20 140 89 154 155 27 129 -43 215 -208 256 -97 24 -130 41 -130 68 0
54 82 61 156 13 63 -40 89 -40 142 -1 l42 31 -33 40 c-37 46 -96 89 -146 106
-41 15 -145 14 -186 0z"/>
<path d="M7295 3166 c-63 -29 -127 -100 -157 -175 -18 -45 -22 -76 -23 -156 0
-88 3 -107 26 -156 33 -70 96 -134 157 -161 63 -28 161 -28 225 0 46 21 147
114 147 137 0 17 -55 55 -90 62 -25 4 -40 -1 -78 -28 -62 -45 -113 -46 -166
-5 -31 23 -66 77 -66 99 0 3 44 6 98 9 71 4 111 11 150 28 149 64 176 234 52
325 -70 52 -191 61 -275 21z m164 -137 c24 -9 31 -16 29 -32 -5 -32 -45 -47
-127 -47 l-73 0 14 23 c21 30 76 67 103 67 12 0 36 -5 54 -11z"/>
<path d="M7790 2735 l0 -455 40 0 c88 0 120 40 120 149 l0 69 59 7 c303 35
423 398 198 600 -75 68 -133 85 -287 85 l-130 0 0 -455z m278 278 c73 -35 118
-140 92 -218 -24 -74 -103 -134 -177 -135 l-33 0 0 191 0 192 42 -7 c23 -4 57
-14 76 -23z"/>
<path d="M1846 2615 c-112 -46 -201 -162 -213 -279 l-6 -56 748 0 748 0 -6 54
c-12 120 -108 242 -222 285 -54 20 -75 21 -523 21 l-467 0 -59 -25z"/>
</g>
</svg>
